<svg xmlns="http://www.w3.org/2000/svg" width="1920" height="900"><path d="M959,445L765,251L771,385Z" fill="#6ec5be" stroke="#6ec5be" stroke-width="1.51"/><path d="M959,445L995,161L765,251Z" fill="#7fcabd" stroke="#7fcabd" stroke-width="1.51"/><path d="M959,445L1157,254L995,161Z" fill="#77c2be" stroke="#77c2be" stroke-width="1.51"/><path d="M995,161L961,-35L765,251Z" fill="#a8d8ba" stroke="#a8d8ba" stroke-width="1.51"/><path d="M1273,-77L961,-35L995,161Z" fill="#a7d0cb" stroke="#a7d0cb" stroke-width="1.51"/><path d="M959,445L1236,511L1157,254Z" fill="#4aaec1" stroke="#4aaec1" stroke-width="1.51"/><path d="M959,445L955,716L1236,511Z" fill="#2d9dc2" stroke="#2d9dc2" stroke-width="1.51"/><path d="M668,674L955,716L959,445Z" fill="#479cbb" stroke="#479cbb" stroke-width="1.51"/><path d="M771,385L668,674L959,445Z" fill="#55b5c0" stroke="#55b5c0" stroke-width="1.51"/><path d="M471,405L668,674L771,385Z" fill="#72c0be" stroke="#72c0be" stroke-width="1.51"/><path d="M961,-35L633,-33L765,251Z" fill="#b8e1c1" stroke="#b8e1c1" stroke-width="1.51"/><path d="M765,251L471,405L771,385Z" fill="#86cfbb" stroke="#86cfbb" stroke-width="1.51"/><path d="M463,132L471,405L765,251Z" fill="#b0dfb7" stroke="#b0dfb7" stroke-width="1.51"/><path d="M633,-33L463,132L765,251Z" fill="#c7e8b5" stroke="#c7e8b5" stroke-width="1.51"/><path d="M982,1001L1152,765L955,716Z" fill="#346aa0" stroke="#346aa0" stroke-width="1.51"/><path d="M955,716L1152,765L1236,511Z" fill="#2c80b6" stroke="#2c80b6" stroke-width="1.51"/><path d="M1157,254L1273,-77L995,161Z" fill="#9fc8bb" stroke="#9fc8bb" stroke-width="1.51"/><path d="M1236,511L1414,254L1157,254Z" fill="#5aa7bb" stroke="#5aa7bb" stroke-width="1.51"/><path d="M1476,512L1414,254L1236,511Z" fill="#4093b8" stroke="#4093b8" stroke-width="1.51"/><path d="M1414,254L1273,-77L1157,254Z" fill="#96b7b7" stroke="#96b7b7" stroke-width="1.51"/><path d="M961,-35L644,-272L633,-33Z" fill="#c0e5ca" stroke="#c0e5ca" stroke-width="1.51"/><path d="M668,674L767,932L955,716Z" fill="#557dab" stroke="#557dab" stroke-width="1.51"/><path d="M471,405L448,675L668,674Z" fill="#7eb4ba" stroke="#7eb4ba" stroke-width="1.51"/><path d="M134,523L448,675L471,405Z" fill="#95c4bb" stroke="#95c4bb" stroke-width="1.51"/><path d="M463,132L214,157L471,405Z" fill="#cdebb4" stroke="#cdebb4" stroke-width="1.51"/><path d="M633,-33L388,10L463,132Z" fill="#def2c0" stroke="#def2c0" stroke-width="1.51"/><path d="M1541,648L1476,512L1236,511Z" fill="#247bb5" stroke="#247bb5" stroke-width="1.51"/><path d="M1742,131L1447,8L1414,254Z" fill="#959dac" stroke="#959dac" stroke-width="1.51"/><path d="M1414,254L1447,8L1273,-77Z" fill="#9cb0ba" stroke="#9cb0ba" stroke-width="1.51"/><path d="M380,959L767,932L668,674Z" fill="#667a95" stroke="#667a95" stroke-width="1.51"/><path d="M633,-33L381,-279L388,10Z" fill="#e4f5c6" stroke="#e4f5c6" stroke-width="1.51"/><path d="M933,-368L644,-272L961,-35Z" fill="#b7e0cd" stroke="#b7e0cd" stroke-width="1.51"/><path d="M1195,-362L933,-368L961,-35Z" fill="#aad4cf" stroke="#aad4cf" stroke-width="1.51"/><path d="M1195,-362L961,-35L1273,-77Z" fill="#a6cbce" stroke="#a6cbce" stroke-width="1.51"/><path d="M767,932L982,1001L955,716Z" fill="#396a91" stroke="#396a91" stroke-width="1.51"/><path d="M1152,765L1541,648L1236,511Z" fill="#2373b2" stroke="#2373b2" stroke-width="1.51"/><path d="M388,10L214,157L463,132Z" fill="#e5f5b4" stroke="#e5f5b4" stroke-width="1.51"/><path d="M117,-79L214,157L388,10Z" fill="#f4fbc0" stroke="#f4fbc0" stroke-width="1.51"/><path d="M1476,512L1700,405L1414,254Z" fill="#4e86b1" stroke="#4e86b1" stroke-width="1.51"/><path d="M1497,984L1541,648L1152,765Z" fill="#264d9d" stroke="#264d9d" stroke-width="1.51"/><path d="M1475,-292L1195,-362L1273,-77Z" fill="#a1b9c8" stroke="#a1b9c8" stroke-width="1.51"/><path d="M982,1001L1197,1020L1152,765Z" fill="#235b8c" stroke="#235b8c" stroke-width="1.51"/><path d="M644,-272L381,-279L633,-33Z" fill="#d9f0c7" stroke="#d9f0c7" stroke-width="1.51"/><path d="M933,-368L381,-279L644,-272Z" fill="#cbeac9" stroke="#cbeac9" stroke-width="1.51"/><path d="M214,157L134,523L471,405Z" fill="#b3dfb8" stroke="#b3dfb8" stroke-width="1.51"/><path d="M448,675L380,959L668,674Z" fill="#818ca8" stroke="#818ca8" stroke-width="1.51"/><path d="M1541,648L1700,405L1476,512Z" fill="#3172b0" stroke="#3172b0" stroke-width="1.51"/><path d="M134,523L206,745L448,675Z" fill="#97adb2" stroke="#97adb2" stroke-width="1.51"/><path d="M767,932L902,1234L982,1001Z" fill="#39688b" stroke="#39688b" stroke-width="1.51"/><path d="M982,1001L1207,1239L1197,1020Z" fill="#21598b" stroke="#21598b" stroke-width="1.51"/><path d="M206,745L380,959L448,675Z" fill="#8e8ca5" stroke="#8e8ca5" stroke-width="1.51"/><path d="M1447,8L1475,-292L1273,-77Z" fill="#a0afc4" stroke="#a0afc4" stroke-width="1.51"/><path d="M1693,-38L1475,-292L1447,8Z" fill="#9ea1be" stroke="#9ea1be" stroke-width="1.51"/><path d="M1700,405L1742,131L1414,254Z" fill="#778baa" stroke="#778baa" stroke-width="1.51"/><path d="M1742,131L1693,-38L1447,8Z" fill="#9c97b5" stroke="#9c97b5" stroke-width="1.51"/><path d="M214,157L-45,440L134,523Z" fill="#b8e1c3" stroke="#b8e1c3" stroke-width="1.51"/><path d="M381,-279L117,-79L388,10Z" fill="#f2fac5" stroke="#f2fac5" stroke-width="1.51"/><path d="M380,959L645,1153L767,932Z" fill="#607588" stroke="#607588" stroke-width="1.51"/><path d="M1541,648L1785,712L1700,405Z" fill="#2b5da8" stroke="#2b5da8" stroke-width="1.51"/><path d="M1197,1020L1497,984L1152,765Z" fill="#1a4c87" stroke="#1a4c87" stroke-width="1.51"/><path d="M1207,1239L1497,984L1197,1020Z" fill="#194a86" stroke="#194a86" stroke-width="1.51"/><path d="M645,1153L902,1234L767,932Z" fill="#466d8a" stroke="#466d8a" stroke-width="1.51"/><path d="M206,745L129,896L380,959Z" fill="#89868f" stroke="#89868f" stroke-width="1.51"/><path d="M-72,639L129,896L206,745Z" fill="#9c97b4" stroke="#9c97b4" stroke-width="1.51"/><path d="M-84,201L-45,440L214,157Z" fill="#d6efc5" stroke="#d6efc5" stroke-width="1.51"/><path d="M-72,639L206,745L134,523Z" fill="#9eb3bf" stroke="#9eb3bf" stroke-width="1.51"/><path d="M380,959L462,1239L645,1153Z" fill="#6e7a87" stroke="#6e7a87" stroke-width="1.51"/><path d="M381,-279L147,-306L117,-79Z" fill="#f7fcc7" stroke="#f7fcc7" stroke-width="1.51"/><path d="M117,-79L-84,201L214,157Z" fill="#f5fbc2" stroke="#f5fbc2" stroke-width="1.51"/><path d="M933,-368L147,-306L381,-279Z" fill="#e2f4c6" stroke="#e2f4c6" stroke-width="1.51"/><path d="M1680,962L1785,712L1541,648Z" fill="#263896" stroke="#263896" stroke-width="1.51"/><path d="M1700,405L1990,202L1742,131Z" fill="#737f96" stroke="#737f96" stroke-width="1.51"/><path d="M902,1234L1207,1239L982,1001Z" fill="#29608c" stroke="#29608c" stroke-width="1.51"/><path d="M-138,-116L-84,201L117,-79Z" fill="#ffffd9" stroke="#ffffd9" stroke-width="1.51"/><path d="M1497,984L1680,962L1541,648Z" fill="#1c3583" stroke="#1c3583" stroke-width="1.51"/><path d="M1656,1289L1680,962L1497,984Z" fill="#172e78" stroke="#172e78" stroke-width="1.51"/><path d="M-45,440L-72,639L134,523Z" fill="#a6cbcd" stroke="#a6cbcd" stroke-width="1.51"/><path d="M-300,753L-72,639L-389,456Z" fill="#a1b9c8" stroke="#a1b9c8" stroke-width="1.51"/><path d="M645,1153L462,1239L902,1234Z" fill="#547289" stroke="#547289" stroke-width="1.51"/><path d="M902,1234L1511,1274L1207,1239Z" fill="#1b548a" stroke="#1b548a" stroke-width="1.51"/><path d="M199,1285L462,1239L380,959Z" fill="#7a7e86" stroke="#7a7e86" stroke-width="1.51"/><path d="M1693,-38L1755,-299L1475,-292Z" fill="#9d97ba" stroke="#9d97ba" stroke-width="1.51"/><path d="M1475,-292L1755,-299L1195,-362Z" fill="#9fa7c1" stroke="#9fa7c1" stroke-width="1.51"/><path d="M2048,-5L1755,-299L1693,-38Z" fill="#908aa3" stroke="#908aa3" stroke-width="1.51"/><path d="M2048,-5L1693,-38L1742,131Z" fill="#8f899f" stroke="#8f899f" stroke-width="1.51"/><path d="M1785,712L1978,480L1700,405Z" fill="#285f98" stroke="#285f98" stroke-width="1.51"/><path d="M1976,768L1978,480L1785,712Z" fill="#184282" stroke="#184282" stroke-width="1.51"/><path d="M1978,480L1990,202L1700,405Z" fill="#486f8e" stroke="#486f8e" stroke-width="1.51"/><path d="M933,-368L-30,-301L147,-306Z" fill="#eef8c5" stroke="#eef8c5" stroke-width="1.51"/><path d="M147,-306L-30,-301L117,-79Z" fill="#fcfed2" stroke="#fcfed2" stroke-width="1.51"/><path d="M-30,-301L-138,-116L117,-79Z" fill="#ffffd9" stroke="#ffffd9" stroke-width="1.51"/><path d="M-300,753L-139,902L-72,639Z" fill="#9d98ba" stroke="#9d98ba" stroke-width="1.51"/><path d="M1680,962L1976,768L1785,712Z" fill="#1a2a7b" stroke="#1a2a7b" stroke-width="1.51"/><path d="M1207,1239L1511,1274L1497,984Z" fill="#174081" stroke="#174081" stroke-width="1.51"/><path d="M199,1285L1511,1274L902,1234Z" fill="#3b698b" stroke="#3b698b" stroke-width="1.51"/><path d="M2033,965L1976,768L1680,962Z" fill="#091e5b" stroke="#091e5b" stroke-width="1.51"/><path d="M2266,193L2048,-5L1990,202Z" fill="#808186" stroke="#808186" stroke-width="1.51"/><path d="M129,896L199,1285L380,959Z" fill="#838187" stroke="#838187" stroke-width="1.51"/><path d="M-72,639L-139,902L129,896Z" fill="#9990b1" stroke="#9990b1" stroke-width="1.51"/><path d="M-299,173L-45,440L-84,201Z" fill="#d5eec8" stroke="#d5eec8" stroke-width="1.51"/><path d="M2207,467L1990,202L1978,480Z" fill="#416b8b" stroke="#416b8b" stroke-width="1.51"/><path d="M1990,202L2048,-5L1742,131Z" fill="#838187" stroke="#838187" stroke-width="1.51"/><path d="M462,1239L199,1285L902,1234Z" fill="#6b7987" stroke="#6b7987" stroke-width="1.51"/><path d="M3,1230L199,1285L129,896Z" fill="#868390" stroke="#868390" stroke-width="1.51"/><path d="M-272,-57L-299,173L-84,201Z" fill="#f7fcc6" stroke="#f7fcc6" stroke-width="1.51"/><path d="M-138,-116L-272,-57L-84,201Z" fill="#fffed7" stroke="#fffed7" stroke-width="1.51"/><path d="M-275,-257L-272,-57L-138,-116Z" fill="#ffffd9" stroke="#ffffd9" stroke-width="1.51"/><path d="M199,1285L1656,1289L1511,1274Z" fill="#225a8b" stroke="#225a8b" stroke-width="1.51"/><path d="M1511,1274L1656,1289L1497,984Z" fill="#17337a" stroke="#17337a" stroke-width="1.51"/><path d="M-139,902L3,1230L129,896Z" fill="#898498" stroke="#898498" stroke-width="1.51"/><path d="M-389,456L-72,639L-45,440Z" fill="#a8d0ce" stroke="#a8d0ce" stroke-width="1.51"/><path d="M-338,1266L3,1230L-139,902Z" fill="#898498" stroke="#898498" stroke-width="1.51"/><path d="M2048,-5L2043,-265L1755,-299Z" fill="#898498" stroke="#898498" stroke-width="1.51"/><path d="M-272,-57L-389,456L-299,173Z" fill="#e9f7c6" stroke="#e9f7c6" stroke-width="1.51"/><path d="M-299,173L-389,456L-45,440Z" fill="#bfe4cb" stroke="#bfe4cb" stroke-width="1.51"/><path d="M-272,-57L-275,-257L-389,456Z" fill="#fcfed0" stroke="#fcfed0" stroke-width="1.51"/><path d="M-30,-301L-275,-257L-138,-116Z" fill="#ffffd9" stroke="#ffffd9" stroke-width="1.51"/><path d="M2026,1200L2033,965L1680,962Z" fill="#081d59" stroke="#081d59" stroke-width="1.51"/><path d="M2251,641L2207,467L1978,480Z" fill="#21598b" stroke="#21598b" stroke-width="1.51"/><path d="M2048,-5L2258,-91L2043,-265Z" fill="#898498" stroke="#898498" stroke-width="1.51"/><path d="M2251,641L1978,480L1976,768Z" fill="#184684" stroke="#184684" stroke-width="1.51"/><path d="M2207,467L2266,193L1990,202Z" fill="#5d7488" stroke="#5d7488" stroke-width="1.51"/><path d="M2207,467L2251,641L2266,193Z" fill="#33668c" stroke="#33668c" stroke-width="1.51"/><path d="M2275,923L2251,641L1976,768Z" fill="#172a76" stroke="#172a76" stroke-width="1.51"/><path d="M-389,456L-375,933L-300,753Z" fill="#9ea2bf" stroke="#9ea2bf" stroke-width="1.51"/><path d="M-300,753L-375,933L-139,902Z" fill="#9089a2" stroke="#9089a2" stroke-width="1.51"/><path d="M2266,193L2258,-91L2048,-5Z" fill="#878493" stroke="#878493" stroke-width="1.51"/><path d="M2033,965L2275,923L1976,768Z" fill="#0a1e5b" stroke="#0a1e5b" stroke-width="1.51"/><path d="M1656,1289L2026,1200L1680,962Z" fill="#102368" stroke="#102368" stroke-width="1.51"/><path d="M2258,-91L2214,-348L2043,-265Z" fill="#898498" stroke="#898498" stroke-width="1.51"/><path d="M2043,-265L2214,-348L1755,-299Z" fill="#898498" stroke="#898498" stroke-width="1.51"/><path d="M1755,-299L2214,-348L1195,-362Z" fill="#9a90b3" stroke="#9a90b3" stroke-width="1.51"/><path d="M1195,-362L2214,-348L933,-368Z" fill="#9eaac1" stroke="#9eaac1" stroke-width="1.51"/><path d="M2259,1158L2275,923L2033,965Z" fill="#081d58" stroke="#081d58" stroke-width="1.51"/><path d="M2251,641L2275,923L2266,193Z" fill="#1a4f88" stroke="#1a4f88" stroke-width="1.51"/><path d="M-375,933L-338,1266L-139,902Z" fill="#898498" stroke="#898498" stroke-width="1.51"/><path d="M3,1230L-338,1266L199,1285Z" fill="#898498" stroke="#898498" stroke-width="1.51"/><path d="M2026,1200L2259,1158L2033,965Z" fill="#081d58" stroke="#081d58" stroke-width="1.51"/><path d="M1656,1289L2259,1158L2026,1200Z" fill="#081d58" stroke="#081d58" stroke-width="1.51"/></svg>